<?xml version="1.0" encoding="UTF-8" standalone="no"?>
<!DOCTYPE svg PUBLIC "-//W3C//DTD SVG 1.1//EN" "http://www.w3.org/Graphics/SVG/1.1/DTD/svg11.dtd">
<svg version="1.1" xmlns="http://www.w3.org/2000/svg" xmlns:xlink="http://www.w3.org/1999/xlink" preserveAspectRatio="xMidYMid meet" viewBox="0 0 640 640" width="640" height="640"><defs><path d="M640 320C640 496.61 496.61 640 320 640C143.39 640 0 496.61 0 320C0 143.39 143.39 0 320 0C496.61 0 640 143.39 640 320Z" id="bkunD6Zgw"></path><path d="M611.58 320C611.58 480.93 480.93 611.58 320 611.58C159.07 611.58 28.42 480.93 28.42 320C28.42 159.07 159.07 28.42 320 28.42C480.93 28.42 611.58 159.07 611.58 320Z" id="b1oTNtmzpr"></path><path d="M578.68 320C578.68 462.77 462.77 578.68 320 578.68C177.23 578.68 61.32 462.77 61.32 320C61.32 177.23 177.23 61.32 320 61.32C462.77 61.32 578.68 177.23 578.68 320Z" id="bQMYeXX6F"></path><path d="M549.79 315.54C549.79 440.43 448.4 541.82 323.52 541.82C198.63 541.82 97.24 440.43 97.24 315.54C97.24 190.66 198.63 89.27 323.52 89.27C448.4 89.27 549.79 190.66 549.79 315.54Z" id="hlLtT7ds1"></path><path d="M523.9 315.54C523.9 425.02 435.02 513.9 325.54 513.9C216.07 513.9 127.18 425.02 127.18 315.54C127.18 206.07 216.07 117.18 325.54 117.18C435.02 117.18 523.9 206.07 523.9 315.54Z" id="b7OLZsiasp"></path><path d="M499 313.08C499 407.42 422.41 484.02 328.06 484.02C233.72 484.02 157.13 407.42 157.13 313.08C157.13 218.74 233.72 142.14 328.06 142.14C422.41 142.14 499 218.74 499 313.08Z" id="bbkrhcok4"></path><path d="M472.08 313.08C472.08 392.56 407.55 457.1 328.06 457.1C248.58 457.1 184.05 392.56 184.05 313.08C184.05 233.59 248.58 169.06 328.06 169.06C407.55 169.06 472.08 233.59 472.08 313.08Z" id="b2hA3fXDy6"></path><path d="M436.69 310.62C436.69 370.57 388.01 419.24 328.06 419.24C268.11 419.24 219.44 370.57 219.44 310.62C219.44 250.67 268.11 201.99 328.06 201.99C388.01 201.99 436.69 250.67 436.69 310.62Z" id="ddHht2BD"></path></defs><g><g><g><use xlink:href="#bkunD6Zgw" opacity="0.05" fill="#ffffff" fill-opacity="1"></use></g><g><use xlink:href="#b1oTNtmzpr" opacity="0.05" fill="#ffffff" fill-opacity="1"></use></g><g><use xlink:href="#bQMYeXX6F" opacity="0.05" fill="#ffffff" fill-opacity="1"></use></g><g><use xlink:href="#hlLtT7ds1" opacity="0.05" fill="#ffffff" fill-opacity="1"></use></g><g><use xlink:href="#b7OLZsiasp" opacity="0.05" fill="#ffffff" fill-opacity="1"></use></g><g><use xlink:href="#bbkrhcok4" opacity="0.05" fill="#ffffff" fill-opacity="1"></use></g><g><use xlink:href="#b2hA3fXDy6" opacity="0.05" fill="#ffffff" fill-opacity="1"></use></g><g><use xlink:href="#ddHht2BD" opacity="0.05" fill="#ffffff" fill-opacity="1"></use></g></g></g></svg>