<svg width="18" height="18" viewBox="0 0 18 18" fill="none" xmlns="http://www.w3.org/2000/svg">
<path d="M9 0C7.8181 0 6.64778 0.238571 5.55585 0.702093C4.46392 1.16561 3.47177 1.84501 2.63604 2.70148C0.948211 4.43121 0 6.77723 0 9.22344C0 13.3002 2.583 16.759 6.156 17.9857C6.606 18.0595 6.75 17.7736 6.75 17.5245C6.75 17.3124 6.75 16.7313 6.75 15.9658C4.257 16.5192 3.726 14.7298 3.726 14.7298C3.312 13.6599 2.727 13.374 2.727 13.374C1.908 12.8021 2.79 12.8206 2.79 12.8206C3.69 12.8851 4.167 13.7706 4.167 13.7706C4.95 15.1726 6.273 14.7575 6.786 14.5361C6.867 13.9366 7.101 13.5308 7.353 13.3002C5.355 13.0696 3.258 12.2764 3.258 8.76227C3.258 7.73847 3.6 6.91758 4.185 6.26272C4.095 6.03213 3.78 5.07289 4.275 3.82773C4.275 3.82773 5.031 3.5787 6.75 4.76852C7.461 4.5656 8.235 4.46415 9 4.46415C9.765 4.46415 10.539 4.5656 11.25 4.76852C12.969 3.5787 13.725 3.82773 13.725 3.82773C14.22 5.07289 13.905 6.03213 13.815 6.26272C14.4 6.91758 14.742 7.73847 14.742 8.76227C14.742 12.2856 12.636 13.0604 10.629 13.291C10.953 13.5769 11.25 14.1395 11.25 14.9973C11.25 16.2333 11.25 17.2294 11.25 17.5245C11.25 17.7736 11.394 18.0687 11.853 17.9857C15.426 16.7498 18 13.3002 18 9.22344C18 8.0122 17.7672 6.81282 17.3149 5.69378C16.8626 4.57474 16.1997 3.55796 15.364 2.70148C14.5282 1.84501 13.5361 1.16561 12.4442 0.702093C11.3522 0.238571 10.1819 0 9 0Z" fill="white"/>
</svg>
