<svg width="53" height="53" viewBox="0 0 53 53" fill="none" xmlns="http://www.w3.org/2000/svg">
<path fill-rule="evenodd" clip-rule="evenodd" d="M31.207 0C30.8238 0 30.4679 0.0824501 30.1394 0.192377C30.8374 0.659577 31.2207 1.27794 31.4123 1.97874C31.426 2.07492 31.4534 2.14363 31.4671 2.23982C31.4808 2.32227 31.4944 2.40471 31.4944 2.48716C31.5492 3.69639 31.1796 3.84754 30.9196 4.56208C30.5226 5.48275 30.6321 6.47212 31.1112 7.26911C31.1523 7.36529 31.207 7.47522 31.2754 7.57141C30.7553 4.09488 33.6434 3.57272 34.1772 2.48716C34.2182 1.53902 33.438 0.906921 32.8221 0.467201C32.2336 0.10993 31.6997 0 31.207 0ZM35.5596 0.78325C35.5048 1.0993 35.5459 1.01685 35.5322 1.18175C35.5185 1.29167 35.5185 1.42909 35.5049 1.53902C35.4775 1.64895 35.4501 1.75887 35.4091 1.86881C35.3817 1.97874 35.3406 2.08867 35.2996 2.19859C35.2448 2.30853 35.2038 2.40471 35.149 2.51464C35.1079 2.56963 35.0806 2.62457 35.0395 2.67954C35.0121 2.72076 34.9847 2.76199 34.9574 2.80321C34.8889 2.8994 34.8205 2.99559 34.7521 3.07803C34.6699 3.16048 34.6015 3.25667 34.5057 3.32538V3.33914C34.4236 3.40784 34.3414 3.49029 34.2456 3.559C33.9582 3.77885 33.6297 3.94375 33.3286 4.14987C33.2328 4.21857 33.137 4.27354 33.0548 4.35599C32.959 4.42469 32.8769 4.4934 32.7948 4.57585C32.699 4.65829 32.6305 4.74074 32.5484 4.83693C32.48 4.91938 32.3979 5.01556 32.3431 5.11176C32.2747 5.20794 32.2062 5.30413 32.1515 5.40032C32.0967 5.51025 32.0557 5.60644 32.0009 5.71637C31.9599 5.82629 31.9188 5.92248 31.8914 6.03241C31.8504 6.15609 31.823 6.26602 31.7956 6.37595C31.7819 6.43094 31.7819 6.49962 31.7682 6.55458C31.7545 6.60957 31.7545 6.66451 31.7409 6.71948C31.7409 6.8294 31.7272 6.95308 31.7272 7.063C31.7272 7.14545 31.7272 7.2279 31.7409 7.31035C31.7409 7.42028 31.7546 7.53021 31.782 7.65388C31.7957 7.76381 31.823 7.87374 31.8504 7.98367C31.8915 8.0936 31.9188 8.20353 31.9599 8.31345C31.9873 8.38217 32.0283 8.45087 32.0557 8.50583L28.9076 7.28286C28.3738 7.13171 27.8537 6.9943 27.3199 6.87063C27.0325 6.80193 26.745 6.73322 26.4576 6.66451C25.6363 6.49962 24.8014 6.37595 23.9665 6.2935C23.9391 6.2935 23.9254 6.27974 23.8981 6.27974C23.0768 6.19729 22.2693 6.15607 21.448 6.15607C20.8458 6.15607 20.2435 6.18353 19.655 6.22478C18.8201 6.27976 17.9851 6.38967 17.1502 6.52708C16.9449 6.55454 16.7396 6.59579 16.5343 6.63702C16.11 6.71946 15.6993 6.81565 15.3024 6.91184C15.0971 6.96683 14.8918 7.02177 14.6865 7.07673C14.4812 7.15918 14.2896 7.25537 14.0979 7.33782C13.9474 7.40652 13.7968 7.47523 13.6462 7.54393C13.6189 7.5577 13.5915 7.55769 13.5778 7.5714C13.4409 7.6401 13.3177 7.69506 13.1946 7.76377C13.1535 7.77753 13.1261 7.79123 13.0988 7.805C12.9482 7.8737 12.7976 7.95615 12.6744 8.02485C12.5786 8.06608 12.4828 8.12104 12.4007 8.16227C12.3596 8.18973 12.3049 8.21726 12.2775 8.23098C12.1543 8.29968 12.0311 8.36838 11.9216 8.43709C11.7985 8.5058 11.689 8.5745 11.5931 8.64321C11.4973 8.71192 11.4015 8.76688 11.3194 8.83558C11.3057 8.84934 11.292 8.84934 11.2783 8.86305C11.1962 8.91803 11.1004 8.98672 11.0183 9.05543C11.0183 9.05543 11.0046 9.06919 10.9909 9.08289C10.9225 9.13788 10.854 9.19282 10.7856 9.24778C10.7583 9.26154 10.7308 9.289 10.7035 9.30276C10.6351 9.35775 10.5666 9.42644 10.4982 9.4814C10.4845 9.50887 10.4571 9.52263 10.4434 9.53639C10.3613 9.61884 10.2792 9.68754 10.197 9.76999C10.1833 9.76999 10.1833 9.78375 10.1697 9.79745C10.0876 9.86616 10.0054 9.9486 9.92331 10.0311C9.9096 10.0448 9.9096 10.0585 9.89596 10.0585C9.82753 10.1272 9.75909 10.1959 9.69065 10.2784C9.6633 10.3058 9.62221 10.3334 9.59484 10.3608C9.52641 10.4433 9.44428 10.5257 9.36216 10.6082C9.34845 10.6356 9.3211 10.6494 9.30739 10.6769C9.19789 10.7868 9.10207 10.8967 8.99258 11.0067C8.97887 11.0204 8.96522 11.0341 8.95152 11.0479C8.73251 11.2815 8.49983 11.5151 8.25346 11.7212C8.00709 11.9411 7.74703 12.1472 7.48697 12.3258C7.21322 12.5182 6.95316 12.6831 6.66573 12.848C6.39198 12.9991 6.10455 13.1365 5.80343 13.2602C5.51599 13.3839 5.21487 13.4938 4.91375 13.59C4.33888 13.7137 3.75033 13.9473 3.24389 13.9885C3.1344 13.9885 3.01121 14.016 2.90171 14.0297C2.77853 14.0572 2.66903 14.0847 2.55953 14.1122C2.45003 14.1534 2.34053 14.1946 2.23103 14.2358C2.12154 14.2771 2.01204 14.332 1.90254 14.387C1.80673 14.4557 1.69723 14.5107 1.60142 14.5794C1.50561 14.6481 1.40979 14.7305 1.32767 14.813C1.23186 14.8817 1.13605 14.9779 1.05392 15.0603C0.971798 15.1565 0.889674 15.239 0.821239 15.3351C0.752804 15.4451 0.670679 15.5413 0.615927 15.6512C0.547492 15.7474 0.479057 15.8573 0.424305 15.9672C0.369534 16.0909 0.314808 16.2008 0.273746 16.3245C0.232683 16.4344 0.191621 16.5581 0.150559 16.6818C0.123206 16.7917 0.0957877 16.9016 0.0821239 17.0116C0.0821239 17.0253 0.0684155 17.039 0.0684155 17.0528C0.041062 17.1765 0.041062 17.3414 0.027353 17.4238C0.0136446 17.52 0 17.6024 0 17.6986C0 17.7536 4.26097e-08 17.8223 0.0137084 17.8773C0.0274168 17.9735 0.0410614 18.0559 0.0684795 18.1384C0.0958328 18.2208 0.123251 18.3032 0.164287 18.3857V18.3995C0.205349 18.4819 0.260101 18.5644 0.314847 18.6468C0.369618 18.7292 0.424351 18.8117 0.492786 18.8941C0.561221 18.9629 0.643345 19.0453 0.72547 19.114C0.807594 19.1964 0.889719 19.2652 0.985527 19.3339C1.31402 19.6224 1.39615 19.7186 1.82046 19.9385C1.88889 19.9797 1.95733 20.0072 2.03946 20.0484C2.05317 20.0484 2.06681 20.0622 2.08052 20.0622C2.08052 20.0896 2.08052 20.1034 2.09423 20.1309C2.10794 20.2408 2.13529 20.3507 2.16266 20.4607C2.19002 20.5843 2.23111 20.6943 2.27217 20.7905C2.31323 20.8729 2.3406 20.9553 2.38167 21.0378C2.39537 21.0653 2.40902 21.0928 2.42273 21.1065C2.4775 21.2164 2.53223 21.3126 2.58697 21.4088C2.65541 21.505 2.72385 21.6012 2.79228 21.6974C2.86072 21.7798 2.94284 21.876 3.02497 21.9585C3.10709 22.0409 3.18922 22.1096 3.28503 22.1921C3.28503 22.1921 3.29874 22.2058 3.31238 22.2058C3.39451 22.2745 3.47663 22.3433 3.55876 22.3982C3.65457 22.4669 3.75038 22.5219 3.85988 22.5768C3.95569 22.6318 4.06519 22.6868 4.17469 22.728C4.25681 22.7692 4.35262 22.7967 4.44843 22.8242C4.46214 22.838 4.47578 22.838 4.5032 22.8517C4.55797 22.8654 4.62638 22.8791 4.68113 22.8929C4.64007 23.6349 4.62636 24.3357 4.73591 24.583C4.85909 24.8579 5.46133 24.0197 6.06358 23.0578C5.98145 24.0059 5.9267 25.1189 6.06358 25.4487C6.21414 25.7923 7.03538 24.7205 7.74712 23.5387C17.4514 21.2852 26.3071 28.0184 27.2379 37.5273C27.0599 36.0432 25.2395 35.2187 24.4046 35.4249C23.994 36.4417 23.2959 37.7471 22.1736 38.5579C22.2694 37.6509 22.2283 36.7165 22.0367 35.8096C21.7356 37.0738 21.147 38.2556 20.3395 39.2724C19.0392 39.3686 17.7389 38.7365 17.0545 37.7884C16.9997 37.7471 16.9861 37.6647 16.945 37.6097C16.9039 37.5135 16.8629 37.4173 16.8355 37.3212C16.7944 37.225 16.7671 37.1288 16.7534 37.0326C16.7397 36.9364 16.7397 36.8402 16.7397 36.7303C16.7397 36.6616 16.7397 36.5929 16.7397 36.5242C16.7534 36.428 16.7807 36.3318 16.8081 36.2356C16.8355 36.1394 16.8629 36.0432 16.9039 35.947C16.9587 35.8508 16.9997 35.7547 17.0682 35.6585C17.3008 34.9989 17.3008 34.463 16.8765 34.1469C16.7944 34.0919 16.7123 34.0507 16.6165 34.0095C16.5617 33.9958 16.4933 33.9683 16.4385 33.9545C16.3975 33.9408 16.3701 33.9271 16.3291 33.9133C16.2332 33.8858 16.1374 33.8583 16.0416 33.8446C15.9458 33.8171 15.85 33.8034 15.7542 33.8034C15.6584 33.7896 15.5489 33.7759 15.4531 33.7759C15.3846 33.7759 15.3162 33.7897 15.2477 33.7897C15.1383 33.7897 15.0424 33.8035 14.9466 33.8309C14.8508 33.8447 14.755 33.8584 14.6592 33.8859C14.5634 33.9133 14.4676 33.9409 14.3718 33.9821C14.2759 34.0233 14.1938 34.0645 14.098 34.1057C14.0159 34.147 13.9338 34.2019 13.838 34.2432C10.6488 36.3318 12.5513 41.2237 14.7276 42.639C13.9064 42.7902 13.0715 42.9688 12.8388 43.1475C12.8251 43.1612 12.8114 43.1749 12.8114 43.1749C13.4 43.5322 14.0159 43.8345 14.6592 44.0956C15.5352 44.3842 16.4659 44.6452 16.8766 44.7552V44.7689C18.0126 45.0025 19.1623 45.085 20.3258 45.0163C26.3893 44.5903 31.3578 39.9595 32.2611 33.8584C32.2885 33.9821 32.3159 34.092 32.3433 34.2157C32.3843 34.463 32.4391 34.7241 32.4664 34.9852V34.999C32.4938 35.1226 32.5075 35.2463 32.5212 35.3562V35.4112C32.5349 35.5349 32.5486 35.6586 32.5486 35.7685C32.5623 35.9196 32.5759 36.0708 32.5759 36.222V36.4418C32.5759 36.5105 32.5896 36.593 32.5896 36.6617C32.5896 36.7441 32.5759 36.8266 32.5759 36.909V37.1014C32.5759 37.1976 32.5622 37.28 32.5622 37.3762C32.5622 37.4312 32.5622 37.4861 32.5485 37.5548C32.5485 37.651 32.5348 37.7472 32.5348 37.8572C32.5211 37.8984 32.5211 37.9396 32.5211 37.9808C32.5073 38.0908 32.4937 38.1869 32.48 38.2969C32.48 38.3381 32.48 38.3793 32.4663 38.4205C32.4526 38.558 32.4252 38.6816 32.4115 38.819V38.8328V38.8466C32.3842 38.9702 32.3567 39.1077 32.3294 39.2313V39.2726C32.302 39.3962 32.2746 39.5199 32.2473 39.6436C32.2473 39.6573 32.2336 39.6848 32.2336 39.6985C32.2062 39.8222 32.1788 39.9459 32.1378 40.0696V40.1108C32.0967 40.2482 32.0556 40.3719 32.0283 40.4955C32.0145 40.5093 32.0145 40.523 32.0145 40.523C31.9735 40.6604 31.9324 40.7978 31.8914 40.9352C31.8366 41.0727 31.7956 41.1963 31.7408 41.3337C31.686 41.4711 31.645 41.6086 31.5902 41.7322C31.5355 41.8696 31.4807 41.9933 31.426 42.1307H31.4123C31.3575 42.2544 31.3028 42.3918 31.2343 42.5155C31.2206 42.5567 31.207 42.5842 31.1933 42.6117C31.1796 42.6254 31.1796 42.6391 31.1659 42.6529C30.2762 44.453 28.9623 46.0332 27.3198 47.2699C27.2103 47.3386 27.1008 47.4211 26.9913 47.5035C26.9639 47.531 26.9228 47.5448 26.8955 47.5722C26.7997 47.6409 26.7038 47.7097 26.5944 47.7784L26.6354 47.8608H26.6491C26.8407 47.8334 27.0324 47.8058 27.224 47.7784H27.2377C27.5936 47.7234 27.9494 47.6547 28.3053 47.586C28.4011 47.5722 28.5106 47.5448 28.6064 47.5173C28.6749 47.5035 28.7296 47.4898 28.798 47.4761C28.8939 47.4623 28.9897 47.4348 29.0855 47.4211C29.1676 47.3936 29.2497 47.3798 29.3319 47.3524C30.7006 47.0226 32.0283 46.5691 33.3012 46.0332C31.1249 49.015 28.2095 51.4198 24.8013 53C26.3754 52.8901 27.9494 52.629 29.4687 52.1893C34.9847 50.5541 39.6247 46.8302 42.4032 41.8146C41.8421 44.9889 40.5828 48.0119 38.7214 50.6503C40.049 49.7708 41.2672 48.754 42.3759 47.5997C45.4418 44.3843 47.4539 40.3031 48.1382 35.9197C48.6036 38.0908 48.7405 40.3306 48.5352 42.5429C58.4174 28.7055 49.3564 14.3597 45.565 10.5809C45.5513 10.5534 45.5377 10.5396 45.5377 10.5122C45.5239 10.5259 45.5239 10.5259 45.5239 10.5396C45.5239 10.5259 45.5239 10.5259 45.5102 10.5122C45.5102 10.6771 45.4965 10.8419 45.4829 11.0068C45.4418 11.3229 45.4008 11.6252 45.346 11.9275C45.2776 12.2298 45.1955 12.5321 45.1133 12.8344C45.0175 13.123 44.908 13.4253 44.7848 13.7139C44.6616 13.9887 44.5248 14.2772 44.3742 14.5521C44.2237 14.8132 44.0594 15.088 43.8815 15.3353C43.7035 15.5964 43.5119 15.8437 43.3203 16.0773C43.115 16.3247 42.896 16.5445 42.677 16.7644C42.5401 16.8881 42.4169 16.998 42.28 17.1079C42.1706 17.2041 42.0747 17.2866 41.9652 17.3828C41.7189 17.5751 41.4725 17.7538 41.1988 17.9187C40.9387 18.0836 40.665 18.2485 40.3912 18.3859C40.1038 18.5233 39.8163 18.647 39.5289 18.7706C39.2415 18.8805 38.9403 18.9767 38.6392 19.0592C38.3381 19.1416 38.0233 19.2103 37.7222 19.2653C37.4074 19.3203 37.0926 19.3478 36.7914 19.3752C36.5724 19.389 36.3534 19.4027 36.1344 19.4027C35.8196 19.4027 35.5048 19.3752 35.2037 19.3477C34.8889 19.3203 34.5741 19.279 34.273 19.2103C33.9582 19.1553 33.657 19.0729 33.3559 18.9767H33.3422C33.6433 18.9492 33.9445 18.9217 34.2456 18.8668C34.5604 18.8118 34.8615 18.7431 35.1626 18.6606C35.4637 18.5782 35.7649 18.482 36.0523 18.3721C36.3534 18.2622 36.6409 18.1247 36.9146 17.9873C37.202 17.8499 37.4621 17.6988 37.7358 17.5339C37.9959 17.3552 38.256 17.1766 38.5023 16.9842C38.7487 16.7918 38.9814 16.5857 39.2004 16.3659C39.4331 16.1597 39.6384 15.9261 39.8437 15.6925C40.049 15.4452 40.2406 15.1979 40.4186 14.9505C40.4459 14.9093 40.4733 14.8543 40.5007 14.8131C40.6376 14.5932 40.7744 14.3734 40.8976 14.1535C41.0482 13.8787 41.1851 13.6039 41.3082 13.3153C41.4314 13.0268 41.5409 12.7382 41.6367 12.4359C41.7325 12.1473 41.801 11.845 41.8694 11.5427C41.9242 11.2267 41.9789 10.9243 42.0063 10.622C42.0336 10.306 42.0611 9.98994 42.0611 9.68764C42.0611 9.46777 42.0473 9.24792 42.0337 9.02806C42.0064 8.71201 41.9653 8.4097 41.9242 8.1074C41.8694 7.79135 41.801 7.48904 41.7189 7.18673C41.6231 6.89817 41.5273 6.59586 41.4178 6.3073C41.3083 6.01873 41.1714 5.73016 41.0345 5.45534C40.884 5.18051 40.7334 4.90569 40.5692 4.64461C40.3912 4.38353 40.2133 4.13619 40.0217 3.88884C39.8164 3.65524 39.611 3.42164 39.392 3.18804C39.2826 3.07811 39.1594 2.95444 39.0362 2.84451C38.4202 2.36357 37.7769 1.9101 37.1336 1.49787C37.0378 1.44288 36.9557 1.40168 36.8599 1.36045C36.4082 1.07189 35.9839 0.920658 35.5596 0.78325Z" fill="#E0234E"/>
</svg>
